v 0.000000 -0.166666 1.000000
v 0.000000 0.166666 0.333333
v -0.707107 -0.166666 0.707107
v -0.235702 0.166666 0.235702
v -1.000000 -0.166666 0.000000
v -0.333333 0.166666 0.000000
v -0.707107 -0.166666 -0.707107
v -0.235702 0.166666 -0.235702
v 0.000000 -0.166666 -1.000000
v 0.000000 0.166666 -0.333333
v 0.707107 -0.166666 -0.707107
v 0.235702 0.166666 -0.235702
v 1.000000 -0.166666 0.000000
v 0.333333 0.166666 0.000000
v 0.707107 -0.166666 0.707107
v 0.235702 0.166666 0.235702
vn -0.1821 0.8795 0.4397
vn -0.4397 0.8795 0.1821
vn -0.4397 0.8795 -0.1821
vn -0.1821 0.8795 -0.4397
vn 0.1821 0.8795 -0.4397
vn 0.4397 0.8795 -0.1821
vn -0.0000 1.0000 -0.0000
vn 0.4397 0.8795 0.1821
vn 0.1821 0.8795 0.4397
vn -0.0000 -1.0000 -0.0000
vt 1.000000 0.500000
vt 0.000000 0.500000
vt 0.750000 0.490000
vt 1.000000 1.000000
vt 0.250000 0.490000
vt 0.000000 1.000000
vt 0.875000 0.500000
vt 0.919706 0.419706
vt 0.875000 1.000000
vt 0.419706 0.419706
vt 0.750000 0.500000
vt 0.990000 0.250000
vt 0.750000 1.000000
vt 0.490000 0.250000
vt 0.625000 0.500000
vt 0.919706 0.080294
vt 0.625000 1.000000
vt 0.419706 0.080294
vt 0.500000 0.500000
vt 0.750000 0.010000
vt 0.500000 1.000000
vt 0.250000 0.010000
vt 0.375000 0.500000
vt 0.580294 0.080294
vt 0.375000 1.000000
vt 0.080294 0.080294
vt 0.250000 0.500000
vt 0.510000 0.250000
vt 0.010000 0.250000
vt 0.250000 1.000000
vt 0.125000 0.500000
vt 0.580294 0.419706
vt 0.080294 0.419706
vt 0.125000 1.000000
f 2/4/1 3/7/1 1/1/1
f 3/7/2 6/13/2 5/11/2
f 6/13/3 7/15/3 5/11/3
f 7/15/4 10/21/4 9/19/4
f 10/21/5 11/23/5 9/19/5
f 11/23/6 14/30/6 13/27/6
f 14/29/7 10/22/7 6/14/7
f 14/30/8 15/31/8 13/27/8
f 15/31/9 2/6/9 1/2/9
f 7/16/10 11/24/10 15/32/10
f 2/4/1 4/9/1 3/7/1
f 3/7/2 4/9/2 6/13/2
f 6/13/3 8/17/3 7/15/3
f 7/15/4 8/17/4 10/21/4
f 10/21/5 12/25/5 11/23/5
f 11/23/6 12/25/6 14/30/6
f 6/14/7 4/10/7 2/5/7
f 2/5/7 16/33/7 14/29/7
f 14/29/7 12/26/7 10/22/7
f 10/22/7 8/18/7 6/14/7
f 6/14/7 2/5/7 14/29/7
f 14/30/8 16/34/8 15/31/8
f 15/31/9 16/34/9 2/6/9
f 15/32/10 1/3/10 3/8/10
f 3/8/10 5/12/10 7/16/10
f 7/16/10 9/20/10 11/24/10
f 11/24/10 13/28/10 15/32/10
f 15/32/10 3/8/10 7/16/10
