# Blender 3.4.0
# www.blender.org
o ship
v 0.000000 0.229026 -0.347441
v -0.781832 0.153724 -0.347441
v -0.974928 -0.015478 -0.347441
v -0.433884 -0.151168 -0.347441
v 0.433884 -0.151168 -0.347441
v 0.974928 -0.015478 -0.347441
v 0.781832 0.153724 -0.347441
v -0.974928 -0.015478 0.152559
v -0.433884 -0.151168 0.652559
v 0.433884 -0.151168 0.652559
v 0.974928 -0.015478 0.152559
v 0.000000 0.229026 0.152559
vn -0.0000 -0.0000 -1.0000
vn 0.2433 -0.9700 -0.0000
vn -0.0000 -1.0000 -0.0000
vn -0.2433 -0.9700 -0.0000
vn -0.6590 0.7521 -0.0000
vn 0.6590 0.7521 -0.0000
vn -0.0434 0.9513 0.3052
vn 0.0434 0.9513 0.3052
vn -0.0000 0.7960 0.6053
vn 0.3249 0.8672 0.3774
vn -0.3249 0.8672 0.3774
vn -0.0959 0.9954 -0.0000
vn 0.0959 0.9954 -0.0000
vt 0.500000 0.987103
vt 0.501442 0.559689
vt 0.202524 0.973313
vt 0.792332 0.531672
vt 0.106262 0.961277
vt 0.864175 0.468718
vt 0.131033 0.005309
vt 0.662874 0.418233
vt 0.338569 0.005309
vt 0.340010 0.418233
vt 0.661432 0.005309
vt 0.138709 0.468718
vt 0.868968 0.005309
vt 0.893738 0.961276
vt 0.797476 0.973313
vt 0.210552 0.531672
vt 0.129704 0.773807
vt 0.131033 0.191340
vt 0.334541 0.578463
vt 0.338569 0.377371
vt 0.665459 0.578463
vt 0.661432 0.377371
vt 0.870297 0.773807
vt 0.868968 0.191340
vt 0.500000 0.805145
s 0
f 5/10/1 7/16/1 6/12/1
f 5/11/2 6/13/2 11/24/2
f 4/9/3 5/11/3 10/22/3
f 4/9/4 9/20/4 8/18/4
f 2/3/5 3/5/5 8/17/5
f 6/14/6 7/15/6 11/23/6
f 8/17/7 9/19/7 2/3/7
f 11/23/8 7/15/8 10/21/8
f 9/19/9 10/21/9 12/25/9
f 10/21/10 7/15/10 12/25/10
f 2/3/11 9/19/11 12/25/11
f 1/1/12 2/3/12 12/25/12
f 7/15/13 1/1/13 12/25/13
f 1/2/1 7/16/1 2/4/1
f 2/4/1 7/16/1 3/6/1
f 3/6/1 7/16/1 4/8/1
f 4/8/1 7/16/1 5/10/1
f 5/11/2 11/24/2 10/22/2
f 4/9/3 10/22/3 9/20/3
f 4/9/4 8/18/4 3/7/4
